{
  "accessors": [
    {
      "bufferView": 2,
      "componentType": 5126,
      "count": 55031,
      "max": [
        0.9475409984588623,
        0.92769718170166016,
        0.9498283863067627
      ],
      "min": [
        -0.92560267448425293,
        -0.92609381675720215,
        -0.94540190696716309
      ],
      "type": "VEC3"
    },
    {
      "bufferView": 2,
      "byteOffset": 660372,
      "componentType": 5126,
      "count": 55031,
      "max": [
        0.99996519088745117,
        0.99997842311859131,
        0.99999570846557617
      ],
      "min": [
        -0.99990618228912354,
        -0.99984395503997803,
        -0.9999535083770752
      ],
      "type": "VEC3"
    },
    {
      "bufferView": 1,
      "componentType": 5126,
      "count": 55031,
      "max": [
        0.98716199398040771,
        0.98710858821868896
      ],
      "min": [
        0.012837976217269897,
        0.01283729076385498
      ],
      "type": "VEC2"
    },
    {
      "bufferView": 0,
      "componentType": 5125,
      "count": 267264,
      "max": [
        55030
      ],
      "min": [
        0
      ],
      "type": "SCALAR"
    }
  ],
  "asset": {
    "extras": {
      "author": "cherkesgiller (https://sketchfab.com/cherkesgiller)",
      "license": "CC-BY-NC-ND-4.0 (http://creativecommons.org/licenses/by-nc-nd/4.0/)",
      "source": "https://sketchfab.com/3d-models/abstract-design-5f61a7b5eaa64af093d7cd721c9ef5ad",
      "title": "Abstract Design"
    },
    "generator": "Sketchfab-9.90.0",
    "version": "2.0"
  },
  "bufferViews": [
    {
      "buffer": 0,
      "byteLength": 1069056,
      "byteOffset": 0,
      "name": "floatBufferViews",
      "target": 34963
    },
    {
      "buffer": 0,
      "byteLength": 440248,
      "byteOffset": 1069056,
      "byteStride": 8,
      "name": "floatBufferViews",
      "target": 34962
    },
    {
      "buffer": 0,
      "byteLength": 1320744,
      "byteOffset": 1509304,
      "byteStride": 12,
      "name": "floatBufferViews",
      "target": 34962
    }
  ],
  "buffers": [
    {
      "byteLength": 2830048,
      "uri": "scene.bin"
    }
  ],
  "images": [
    {
      "uri": "textures/Material_baseColor.png"
    }
  ],
  "materials": [
    {
      "doubleSided": true,
      "emissiveFactor": [
        0,
        0,
        0
      ],
      "name": "Material",
      "pbrMetallicRoughness": {
        "baseColorFactor": [
          1,
          1,
          1,
          1
        ],
        "baseColorTexture": {
          "index": 0,
          "texCoord": 0
        },
        "metallicFactor": 0.23883680207212302,
        "roughnessFactor": 0.20786744006469304
      }
    }
  ],
  "meshes": [
    {
      "name": "VoronoiDyno.Bake_Material_0",
      "primitives": [
        {
          "attributes": {
            "NORMAL": 1,
            "POSITION": 0,
            "TEXCOORD_0": 2
          },
          "indices": 3,
          "material": 0,
          "mode": 4
        }
      ]
    }
  ],
  "nodes": [
    {
      "children": [
        1
      ],
      "name": "RootNode (gltf orientation matrix)",
      "rotation": [
        -0.70710678118654746,
        -0,
        -0,
        0.70710678118654757
      ]
    },
    {
      "children": [
        2
      ],
      "name": "RootNode (model correction matrix)"
    },
    {
      "children": [
        3
      ],
      "matrix": [
        1,
        0,
        0,
        0,
        0,
        0,
        1,
        0,
        0,
        -1,
        0,
        0,
        0,
        0,
        0,
        1
      ],
      "name": "44a5e8b8e72c403c900c82951512c998.fbx"
    },
    {
      "children": [
        4
      ],
      "name": "RootNode"
    },
    {
      "children": [
        5
      ],
      "matrix": [
        100,
        0,
        0,
        0,
        0,
        -1.6292067939183141e-05,
        -99.999999999998678,
        0,
        0,
        99.999999999998678,
        -1.6292067939183141e-05,
        0,
        0,
        0,
        0,
        1
      ],
      "name": "VoronoiDyno.Bake"
    },
    {
      "mesh": 0,
      "name": "VoronoiDyno.Bake_Material_0"
    }
  ],
  "samplers": [
    {
      "magFilter": 9729,
      "minFilter": 9987,
      "wrapS": 10497,
      "wrapT": 10497
    }
  ],
  "scene": 0,
  "scenes": [
    {
      "name": "OSG_Scene",
      "nodes": [
        0
      ]
    }
  ],
  "textures": [
    {
      "sampler": 0,
      "source": 0
    }
  ]
}

