{
  "accessors": [
    {
      "bufferView": 1,
      "componentType": 5126,
      "count": 65532,
      "max": [
        7.7881240844726562,
        4.5709857940673828,
        7.7926812171936035
      ],
      "min": [
        2.482050895690918,
        -7.6638398170471191,
        2.034696102142334
      ],
      "type": "VEC3"
    },
    {
      "bufferView": 1,
      "byteOffset": 786384,
      "componentType": 5126,
      "count": 65532,
      "max": [
        0.99977952241897583,
        0.99982368946075439,
        0.99991673231124878
      ],
      "min": [
        -0.99997025728225708,
        -0.99996703863143921,
        -0.99997133016586304
      ],
      "type": "VEC3"
    },
    {
      "bufferView": 0,
      "componentType": 5125,
      "count": 191367,
      "max": [
        65531
      ],
      "min": [
        0
      ],
      "type": "SCALAR"
    },
    {
      "bufferView": 1,
      "byteOffset": 1572768,
      "componentType": 5126,
      "count": 65532,
      "max": [
        8.1387805938720703,
        -3.2431840896606445,
        8.124542236328125
      ],
      "min": [
        2.0887188911437988,
        -9.8428831100463867,
        2.0074028968811035
      ],
      "type": "VEC3"
    },
    {
      "bufferView": 1,
      "byteOffset": 2359152,
      "componentType": 5126,
      "count": 65532,
      "max": [
        0.99999254941940308,
        0.99988144636154175,
        0.99991315603256226
      ],
      "min": [
        -0.99995160102844238,
        -0.99999982118606567,
        -0.9999692440032959
      ],
      "type": "VEC3"
    },
    {
      "bufferView": 0,
      "byteOffset": 765468,
      "componentType": 5125,
      "count": 172038,
      "max": [
        65531
      ],
      "min": [
        0
      ],
      "type": "SCALAR"
    },
    {
      "bufferView": 1,
      "byteOffset": 3145536,
      "componentType": 5126,
      "count": 65532,
      "max": [
        8.1694345474243164,
        -5.1740131378173828,
        8.151270866394043
      ],
      "min": [
        1.9352060556411743,
        -8.4926214218139648,
        1.9468250274658203
      ],
      "type": "VEC3"
    },
    {
      "bufferView": 1,
      "byteOffset": 3931920,
      "componentType": 5126,
      "count": 65532,
      "max": [
        0.99997580051422119,
        0.99991142749786377,
        0.99976903200149536
      ],
      "min": [
        -0.9999803900718689,
        -0.99998962879180908,
        -0.99992847442626953
      ],
      "type": "VEC3"
    },
    {
      "bufferView": 0,
      "byteOffset": 1453620,
      "componentType": 5125,
      "count": 176514,
      "max": [
        65531
      ],
      "min": [
        0
      ],
      "type": "SCALAR"
    },
    {
      "bufferView": 1,
      "byteOffset": 4718304,
      "componentType": 5126,
      "count": 65532,
      "max": [
        8.480682373046875,
        -5.6422348022460938,
        8.1634502410888672
      ],
      "min": [
        1.9970630407333374,
        -9.3346767425537109,
        1.935155987739563
      ],
      "type": "VEC3"
    },
    {
      "bufferView": 1,
      "byteOffset": 5504688,
      "componentType": 5126,
      "count": 65532,
      "max": [
        0.9999735951423645,
        0.99991345405578613,
        0.99999421834945679
      ],
      "min": [
        -0.99995326995849609,
        -0.99999982118606567,
        -0.99998342990875244
      ],
      "type": "VEC3"
    },
    {
      "bufferView": 0,
      "byteOffset": 2159676,
      "componentType": 5125,
      "count": 173841,
      "max": [
        65531
      ],
      "min": [
        0
      ],
      "type": "SCALAR"
    },
    {
      "bufferView": 1,
      "byteOffset": 6291072,
      "componentType": 5126,
      "count": 65532,
      "max": [
        8.444767951965332,
        -5.9809107780456543,
        7.9776029586791992
      ],
      "min": [
        1.6149599552154541,
        -9.6828708648681641,
        1.7006460428237915
      ],
      "type": "VEC3"
    },
    {
      "bufferView": 1,
      "byteOffset": 7077456,
      "componentType": 5126,
      "count": 65532,
      "max": [
        0.9999767541885376,
        0.99995929002761841,
        0.99999815225601196
      ],
      "min": [
        -0.99997448921203613,
        -0.99999988079071045,
        -0.9999653697013855
      ],
      "type": "VEC3"
    },
    {
      "bufferView": 0,
      "byteOffset": 2855040,
      "componentType": 5125,
      "count": 166980,
      "max": [
        65531
      ],
      "min": [
        0
      ],
      "type": "SCALAR"
    },
    {
      "bufferView": 1,
      "byteOffset": 7863840,
      "componentType": 5126,
      "count": 65532,
      "max": [
        8.5828971862792969,
        -6.5433459281921387,
        8.7905349731445312
      ],
      "min": [
        1.6149599552154541,
        -13.367491722106934,
        1.6092289686203003
      ],
      "type": "VEC3"
    },
    {
      "bufferView": 1,
      "byteOffset": 8650224,
      "componentType": 5126,
      "count": 65532,
      "max": [
        0.99997293949127197,
        0.99999350309371948,
        0.9999808669090271
      ],
      "min": [
        -0.99989163875579834,
        -0.99999988079071045,
        -0.99931949377059937
      ],
      "type": "VEC3"
    },
    {
      "bufferView": 0,
      "byteOffset": 3522960,
      "componentType": 5125,
      "count": 165828,
      "max": [
        65531
      ],
      "min": [
        0
      ],
      "type": "SCALAR"
    },
    {
      "bufferView": 1,
      "byteOffset": 9436608,
      "componentType": 5126,
      "count": 53786,
      "max": [
        8.9694528579711914,
        -7.384009838104248,
        9.5830469131469727
      ],
      "min": [
        0.35367101430892944,
        -24.807037353515625,
        0.68862897157669067
      ],
      "type": "VEC3"
    },
    {
      "bufferView": 1,
      "byteOffset": 10082040,
      "componentType": 5126,
      "count": 53786,
      "max": [
        0.99996328353881836,
        0.99982601404190063,
        0.9999808669090271
      ],
      "min": [
        -0.99999868869781494,
        -0.99992692470550537,
        -0.99998939037322998
      ],
      "type": "VEC3"
    },
    {
      "bufferView": 0,
      "byteOffset": 4186272,
      "componentType": 5125,
      "count": 137361,
      "max": [
        53785
      ],
      "min": [
        0
      ],
      "type": "SCALAR"
    }
  ],
  "asset": {
    "extras": {
      "author": "pando (https://sketchfab.com/pando)",
      "license": "CC-BY-4.0 (http://creativecommons.org/licenses/by/4.0/)",
      "source": "https://sketchfab.com/3d-models/organic-twist-128bf5dbb9604c078eda5f6231074b37",
      "title": "Organic Twist"
    },
    "generator": "Sketchfab-6.34.0",
    "version": "2.0"
  },
  "bufferViews": [
    {
      "buffer": 0,
      "byteLength": 4735716,
      "byteOffset": 0,
      "name": "floatBufferViews",
      "target": 34963
    },
    {
      "buffer": 0,
      "byteLength": 10727472,
      "byteOffset": 4735716,
      "byteStride": 12,
      "name": "floatBufferViews",
      "target": 34962
    }
  ],
  "buffers": [
    {
      "byteLength": 15463188,
      "uri": "scene.bin"
    }
  ],
  "materials": [
    {
      "doubleSided": true,
      "emissiveFactor": [
        0,
        0,
        0
      ],
      "name": "material_0",
      "pbrMetallicRoughness": {
        "baseColorFactor": [
          1,
          1,
          1,
          1
        ],
        "metallicFactor": 0,
        "roughnessFactor": 0.59999999999999998
      }
    }
  ],
  "meshes": [
    {
      "primitives": [
        {
          "attributes": {
            "NORMAL": 1,
            "POSITION": 0
          },
          "indices": 2,
          "material": 0,
          "mode": 4
        }
      ]
    },
    {
      "primitives": [
        {
          "attributes": {
            "NORMAL": 4,
            "POSITION": 3
          },
          "indices": 5,
          "material": 0,
          "mode": 4
        }
      ]
    },
    {
      "primitives": [
        {
          "attributes": {
            "NORMAL": 7,
            "POSITION": 6
          },
          "indices": 8,
          "material": 0,
          "mode": 4
        }
      ]
    },
    {
      "primitives": [
        {
          "attributes": {
            "NORMAL": 10,
            "POSITION": 9
          },
          "indices": 11,
          "material": 0,
          "mode": 4
        }
      ]
    },
    {
      "primitives": [
        {
          "attributes": {
            "NORMAL": 13,
            "POSITION": 12
          },
          "indices": 14,
          "material": 0,
          "mode": 4
        }
      ]
    },
    {
      "primitives": [
        {
          "attributes": {
            "NORMAL": 16,
            "POSITION": 15
          },
          "indices": 17,
          "material": 0,
          "mode": 4
        }
      ]
    },
    {
      "primitives": [
        {
          "attributes": {
            "NORMAL": 19,
            "POSITION": 18
          },
          "indices": 20,
          "material": 0,
          "mode": 4
        }
      ]
    }
  ],
  "nodes": [
    {
      "children": [
        1
      ],
      "name": "RootNode (gltf orientation matrix)",
      "rotation": [
        -0.70710678118654746,
        -0,
        -0,
        0.70710678118654757
      ]
    },
    {
      "children": [
        2
      ],
      "name": "RootNode (model correction matrix)"
    },
    {
      "children": [
        3,
        4,
        5,
        6,
        7,
        8,
        9
      ],
      "name": "a07d0f5a20b84c2c8d48a809a2efc5ab.OBJ.cleaner.materialmerger.gles"
    },
    {
      "mesh": 0,
      "name": ""
    },
    {
      "mesh": 1,
      "name": ""
    },
    {
      "mesh": 2,
      "name": ""
    },
    {
      "mesh": 3,
      "name": ""
    },
    {
      "mesh": 4,
      "name": ""
    },
    {
      "mesh": 5,
      "name": ""
    },
    {
      "mesh": 6,
      "name": ""
    }
  ],
  "scene": 0,
  "scenes": [
    {
      "name": "OSG_Scene",
      "nodes": [
        0
      ]
    }
  ]
}

