{
  "accessors": [
    {
      "bufferView": 2,
      "componentType": 5126,
      "count": 20426,
      "max": [
        14.05620002746582,
        14.05620002746582,
        5
      ],
      "min": [
        -14.05620002746582,
        -14.05620002746582,
        -5
      ],
      "type": "VEC3"
    },
    {
      "bufferView": 2,
      "byteOffset": 245112,
      "componentType": 5126,
      "count": 20426,
      "max": [
        1,
        1,
        1
      ],
      "min": [
        -1,
        -1,
        -1
      ],
      "type": "VEC3"
    },
    {
      "bufferView": 3,
      "componentType": 5126,
      "count": 20426,
      "max": [
        1,
        1,
        0.6922033429145813,
        1
      ],
      "min": [
        -0.7071068286895752,
        -0.7071068286895752,
        -0.69221669435501099,
        -1
      ],
      "type": "VEC4"
    },
    {
      "bufferView": 1,
      "componentType": 5126,
      "count": 20426,
      "max": [
        3.5,
        3.5
      ],
      "min": [
        -2.5,
        -2.5
      ],
      "type": "VEC2"
    },
    {
      "bufferView": 0,
      "componentType": 5125,
      "count": 38880,
      "max": [
        20425
      ],
      "min": [
        0
      ],
      "type": "SCALAR"
    },
    {
      "bufferView": 2,
      "byteOffset": 490224,
      "componentType": 5126,
      "count": 15609,
      "max": [
        14.020930290222168,
        14.020930290222168,
        4.987450122833252
      ],
      "min": [
        -14.020930290222168,
        -14.020930290222168,
        -4.987450122833252
      ],
      "type": "VEC3"
    },
    {
      "bufferView": 2,
      "byteOffset": 677532,
      "componentType": 5126,
      "count": 15609,
      "max": [
        1,
        1,
        1
      ],
      "min": [
        -1,
        -1,
        -1
      ],
      "type": "VEC3"
    },
    {
      "bufferView": 3,
      "byteOffset": 326816,
      "componentType": 5126,
      "count": 15609,
      "max": [
        1,
        1,
        0.66602826118469238,
        1
      ],
      "min": [
        -0.65357881784439087,
        -0.69889974594116211,
        -0.66603988409042358,
        -1
      ],
      "type": "VEC4"
    },
    {
      "bufferView": 1,
      "byteOffset": 163408,
      "componentType": 5126,
      "count": 15609,
      "max": [
        2.0397899150848389,
        1.7663899660110474
      ],
      "min": [
        -1.0397900342941284,
        -0.76639002561569214
      ],
      "type": "VEC2"
    },
    {
      "bufferView": 0,
      "byteOffset": 155520,
      "componentType": 5125,
      "count": 25920,
      "max": [
        15608
      ],
      "min": [
        0
      ],
      "type": "SCALAR"
    }
  ],
  "asset": {
    "extras": {
      "author": "EmperorGO (https://sketchfab.com/EmperorGO)",
      "license": "CC-BY-4.0 (http://creativecommons.org/licenses/by/4.0/)",
      "source": "https://sketchfab.com/3d-models/adorned-metal-object-df75ef66187c4448a1963e0e9edffcef",
      "title": "Adorned Metal Object"
    },
    "generator": "Sketchfab-6.46.0",
    "version": "2.0"
  },
  "bufferViews": [
    {
      "buffer": 0,
      "byteLength": 259200,
      "byteOffset": 0,
      "name": "floatBufferViews",
      "target": 34963
    },
    {
      "buffer": 0,
      "byteLength": 288280,
      "byteOffset": 259200,
      "byteStride": 8,
      "name": "floatBufferViews",
      "target": 34962
    },
    {
      "buffer": 0,
      "byteLength": 864840,
      "byteOffset": 547480,
      "byteStride": 12,
      "name": "floatBufferViews",
      "target": 34962
    },
    {
      "buffer": 0,
      "byteLength": 576560,
      "byteOffset": 1412320,
      "byteStride": 16,
      "name": "floatBufferViews",
      "target": 34962
    }
  ],
  "buffers": [
    {
      "byteLength": 1988880,
      "uri": "scene.bin"
    }
  ],
  "materials": [
    {
      "doubleSided": true,
      "emissiveFactor": [
        1,
        0,
        0.12738339429432283
      ],
      "name": "Material.001",
      "pbrMetallicRoughness": {
        "baseColorFactor": [
          0.18446893990039825,
          0.18446893990039825,
          0.18446893990039825,
          1
        ],
        "metallicFactor": 1,
        "roughnessFactor": 0
      }
    },
    {
      "doubleSided": true,
      "emissiveFactor": [
        0,
        0,
        0
      ],
      "name": "Material",
      "pbrMetallicRoughness": {
        "baseColorFactor": [
          0.80000001192092896,
          0.80000001192092896,
          0.80000001192092896,
          1
        ],
        "metallicFactor": 1,
        "roughnessFactor": 0
      }
    }
  ],
  "meshes": [
    {
      "name": "Cube.020_0",
      "primitives": [
        {
          "attributes": {
            "NORMAL": 1,
            "POSITION": 0,
            "TANGENT": 2,
            "TEXCOORD_0": 3
          },
          "indices": 4,
          "material": 1,
          "mode": 4
        }
      ]
    },
    {
      "name": "Cube.000_0",
      "primitives": [
        {
          "attributes": {
            "NORMAL": 6,
            "POSITION": 5,
            "TANGENT": 7,
            "TEXCOORD_0": 8
          },
          "indices": 9,
          "material": 0,
          "mode": 4
        }
      ]
    }
  ],
  "nodes": [
    {
      "children": [
        1
      ],
      "name": "RootNode (gltf orientation matrix)",
      "rotation": [
        -0.70710678118654746,
        -0,
        -0,
        0.70710678118654757
      ]
    },
    {
      "children": [
        2
      ],
      "name": "RootNode (model correction matrix)"
    },
    {
      "children": [
        3,
        5
      ],
      "name": "Root"
    },
    {
      "children": [
        4
      ],
      "matrix": [
        -0.25152999999999998,
        0.25152999999999998,
        0,
        0,
        -0.17786000000000002,
        -0.17786000000000002,
        -0.25152999999999998,
        0,
        -0.5,
        -0.5,
        0.70711000000000002,
        0,
        0,
        0,
        0,
        1
      ],
      "name": "Cube.020"
    },
    {
      "mesh": 0,
      "name": "Cube.020_0"
    },
    {
      "children": [
        6
      ],
      "matrix": [
        -0.25152999999999998,
        0.25152999999999998,
        0,
        0,
        -0.17786000000000002,
        -0.17786000000000002,
        -0.25152999999999998,
        0,
        -0.5,
        -0.5,
        0.70711000000000002,
        0,
        0,
        0,
        0,
        1
      ],
      "name": "Cube.000"
    },
    {
      "mesh": 1,
      "name": "Cube.000_0"
    }
  ],
  "scene": 0,
  "scenes": [
    {
      "name": "OSG_Scene",
      "nodes": [
        0
      ]
    }
  ]
}

